<?xml version="1.0" encoding="utf-8"?>
<svg width="32" height="32" viewBox="0 0 32 32" fill="none" xmlns="http://www.w3.org/2000/svg">
    <path d="M27.2912 3L17.6875 10.8375L19.5538 6.49625L27.2912 3Z" fill="#E17726"/>
    <path d="M4.70874 3L14.2387 10.9113L12.4462 6.49625L4.70874 3Z" fill="#E27625"/>
    <path d="M23.8225 21.8438L21.1987 26.115L26.8925 27.7613L28.5387 21.9338L23.8225 21.8438Z" fill="#E27625"/>
    <path d="M3.47375 21.9338L5.1075 27.7613L10.7887 26.115L8.17749 21.8438L3.47375 21.9338Z" fill="#E27625"/>
    <path d="M10.5075 14.6025L8.90625 17.1488L14.5363 17.4188L14.3375 11.3438L10.5075 14.6025Z" fill="#E27625"/>
    <path d="M21.4925 14.6025L17.6087 11.27L17.4637 17.4188L23.0825 17.1488L21.4925 14.6025Z" fill="#E27625"/>
    <path d="M10.7887 26.115L14.175 24.3825L11.2612 22.0013L10.7887 26.115Z" fill="#E27625"/>
    <path d="M17.825 24.3825L21.1987 26.115L20.7387 22.0013L17.825 24.3825Z" fill="#E27625"/>
    <path d="M21.1987 26.115L17.825 24.3825L18.0875 26.7075L18.0612 27.6875L21.1987 26.115Z" fill="#D5BFB2"/>
    <path d="M10.7887 26.115L13.9387 27.6875L13.9237 26.7075L14.175 24.3825L10.7887 26.115Z" fill="#D5BFB2"/>
    <path d="M14.0037 20.37L11.1975 19.485L13.1975 18.495L14.0037 20.37Z" fill="#233447"/>
    <path d="M17.9962 20.37L18.8025 18.495L20.8137 19.485L17.9962 20.37Z" fill="#233447"/>
    <path d="M10.7887 26.115L11.2875 21.8438L8.17749 21.9338L10.7887 26.115Z" fill="#CC6228"/>
    <path d="M20.7125 21.8438L21.1987 26.115L23.8225 21.9338L20.7125 21.8438Z" fill="#CC6228"/>
    <path d="M23.0825 17.1488L17.4637 17.4188L17.9962 20.37L18.8025 18.495L20.8137 19.485L23.0825 17.1488Z" fill="#CC6228"/>
    <path d="M11.1975 19.485L13.1975 18.495L14.0037 20.37L14.5363 17.4188L8.90625 17.1488L11.1975 19.485Z" fill="#CC6228"/>
    <path d="M8.90625 17.1488L11.2612 22.0013L11.1975 19.485L8.90625 17.1488Z" fill="#E27525"/>
    <path d="M20.8137 19.485L20.7387 22.0013L23.0825 17.1488L20.8137 19.485Z" fill="#E27525"/>
    <path d="M14.5363 17.4188L14.0037 20.37L14.6725 24.0488L14.8425 19.1513L14.5363 17.4188Z" fill="#E27525"/>
    <path d="M17.4637 17.4188L17.1687 19.14L17.3275 24.0488L17.9962 20.37L17.4637 17.4188Z" fill="#E27525"/>
    <path d="M17.9962 20.37L17.3275 24.0488L17.825 24.3825L20.7387 22.0013L20.8137 19.485L17.9962 20.37Z" fill="#F5841F"/>
    <path d="M11.1975 19.485L11.2612 22.0013L14.175 24.3825L14.6725 24.0488L14.0037 20.37L11.1975 19.485Z" fill="#F5841F"/>
    <path d="M18.0612 27.6875L18.0875 26.7075L17.8475 26.5075H14.1525L13.9237 26.7075L13.9387 27.6875L10.7887 26.115L11.8725 27.0075L14.1162 28.5H17.8725L20.1275 27.0075L21.1987 26.115L18.0612 27.6875Z" fill="#C0AC9D"/>
    <path d="M17.825 24.3825L17.3275 24.0488H14.6725L14.175 24.3825L13.9237 26.7075L14.1525 26.5075H17.8475L18.0875 26.7075L17.825 24.3825Z" fill="#161616"/>
    <path d="M27.9075 11.43L28.7137 7.38625L27.2912 3L17.825 10.575L21.4925 14.6025L26.7575 16.2488L27.8937 14.9025L27.3675 14.5238L28.1475 13.7563L27.5037 13.2675L28.2837 12.6238L27.9075 11.43Z" fill="#763E1A"/>
    <path d="M3.28625 7.38625L4.10375 11.43L3.71625 12.6238L4.49625 13.2675L3.8525 13.7563L4.6325 14.5238L4.10625 14.9025L5.24249 16.2488L10.5075 14.6025L14.175 10.575L4.70874 3L3.28625 7.38625Z" fill="#763E1A"/>
    <path d="M26.7575 16.2488L21.4925 14.6025L23.0825 17.1488L20.7387 22.0013L23.8225 21.9338H28.5387L26.7575 16.2488Z" fill="#F5841F"/>
    <path d="M10.5075 14.6025L5.24249 16.2488L3.47375 21.9338H8.17749L11.2612 22.0013L8.90625 17.1488L10.5075 14.6025Z" fill="#F5841F"/>
    <path d="M17.4637 17.4188L17.825 10.575L19.5537 6.49625H12.4462L14.175 10.575L14.5363 17.4188L14.6612 19.1625L14.6725 24.0488H17.3275L17.3387 19.1625L17.4637 17.4188Z" fill="#F5841F"/>
</svg>
