<?xml version="1.0" encoding="UTF-8"?>
<svg version="1.1" xmlns="http://www.w3.org/2000/svg" width="582" height="582">
<path d="M0 0 C9.26902743 4.19634614 18.67084701 7.69758863 28.31884766 10.92114258 C28.9934201 11.15052521 29.66799255 11.37990784 30.36300659 11.61624146 C43.59337831 16.09289871 57.12878151 19.19568034 71.13134766 19.85864258 C72.10201172 19.91149414 73.07267578 19.9643457 74.07275391 20.01879883 C97.70559452 20.6728967 121.64909919 15.38847948 143.66259766 7.09301758 C161.11918858 0.88098747 178.58282591 6.24581501 195.07885742 12.63745117 C227.55520611 25.0262705 261.60716723 22.4112073 294.13134766 11.85864258 C294.96907715 11.59035645 295.80680664 11.32207031 296.66992188 11.0456543 C307.98187331 7.3831333 318.76124456 2.90654446 329.55712891 -2.05932617 C351.89537626 -12.30711838 373.82044383 -14.61618243 397.20947266 -6.00854492 C399.92921505 -4.83517035 402.52039602 -3.53909995 405.13134766 -2.14135742 C406.08138672 -1.66182617 407.03142578 -1.18229492 408.01025391 -0.68823242 C418.88080484 5.15096834 429.5289497 13.65384666 435.13134766 24.85864258 C437.45967168 32.8612927 435.51569948 39.48678711 432.13134766 46.85864258 C427.0939688 54.71102727 418.91127034 58.2014242 410.50634766 61.54614258 C397.8271907 66.82221878 386.94634466 75.35494212 377.13134766 84.85864258 C376.52291016 85.39360352 375.91447266 85.92856445 375.28759766 86.47973633 C360.04287765 100.37321979 352.10191848 122.67637707 350.89770508 142.75415039 C350.84157012 144.10658779 350.78803684 145.45913514 350.73681641 146.81176758 C350.67127181 148.3234533 350.6045792 149.83508959 350.53686523 151.34667969 C350.50203033 152.12477997 350.46719543 152.90288025 350.43130493 153.70455933 C348.10826981 203.36581797 329.09352273 245.6337235 292.94384766 279.92114258 C257.5907538 311.21066243 210.58697144 326.07080453 163.88134766 326.10864258 C163.12979401 326.10931732 162.37824036 326.10999207 161.60391235 326.11068726 C148.90994413 326.09266108 136.6109167 325.33906885 124.13134766 322.85864258 C123.26300293 322.68703613 122.3946582 322.51542969 121.5 322.33862305 C75.40946755 312.90469113 32.39227479 288.48784041 5.76708984 248.82641602 C-14.33339245 218.07704471 -22.52381413 187.18964414 -24.86865234 150.85864258 C-26.38054567 127.72476083 -31.19724861 107.75984523 -46.86865234 89.85864258 C-47.39845703 89.18575195 -47.92826172 88.51286133 -48.47412109 87.81958008 C-58.79612407 75.02539367 -74.24972877 66.12871266 -89.18115234 59.85864258 C-96.04694329 56.94148225 -101.42167672 54.07458087 -105.86865234 47.85864258 C-106.31466797 47.26825195 -106.76068359 46.67786133 -107.22021484 46.06958008 C-111.02557391 39.98618293 -110.80531309 32.77055291 -109.86865234 25.85864258 C-108.65369264 22.71169778 -107.05342669 20.40484872 -104.86865234 17.85864258 C-104.10681641 16.89700195 -103.34498047 15.93536133 -102.56005859 14.94458008 C-76.20506788 -16.51500773 -34.04578655 -15.66629441 0 0 Z " fill="#FC4848" transform="translate(127.86865234375,254.141357421875)"/>
<path d="M0 0 C11.52234867 11.9211992 15.09539827 26.19451271 15.02075195 42.26049805 C15.02384355 44.27105682 15.02694138 46.28161559 15.03027475 48.29217398 C15.03209192 50.43930935 15.02917147 52.58639447 15.02507973 54.73352623 C15.01743762 59.21765944 15.02816006 63.70163448 15.0422821 68.18574524 C15.079935 80.93153564 15.09819073 93.67725209 15.08666992 106.4230957 C15.08045425 113.47368194 15.09202392 120.52401085 15.12311524 127.57453376 C15.14176024 132.03081536 15.13846243 136.48636739 15.11894763 140.94263685 C15.1104498 144.36383262 15.13449703 147.78466002 15.15356445 151.20581055 C15.14179672 152.43761551 15.13002899 153.66942047 15.11790466 154.93855286 C14.98342964 161.66808145 14.98342964 161.66808145 18.09391785 167.33332825 C20.76146257 169.34474235 20.76146257 169.34474235 24.40625 169.1640625 C27.82272215 168.35692579 27.82272215 168.35692579 29.46615601 165.9960022 C31.16638318 162.17310494 31.21349314 158.7098612 31.19775391 154.60302734 C31.21063194 153.34560982 31.21063194 153.34560982 31.22377014 152.06278992 C31.24884857 149.29177436 31.25321612 146.5211188 31.2578125 143.75 C31.27214112 141.80725025 31.28790144 139.86451059 31.30502319 137.92178345 C31.34690947 132.79661086 31.37185822 127.67150053 31.39251709 122.54620361 C31.42825858 114.39444375 31.49023176 106.24284017 31.55100632 98.09123611 C31.56975206 95.27179206 31.58173572 92.45238866 31.59243774 89.63290405 C31.63494372 80.92604656 31.76899288 72.22570333 32.13427734 63.52587891 C32.15961863 62.74240271 32.18495991 61.95892651 32.21106911 61.1517086 C32.42116911 56.861361 32.94628481 53.70219635 35.34375 50.1015625 C43.84872924 42.63588826 57.99146448 42.27958792 68.74609375 42.7265625 C84.18096195 43.74801443 96.76737272 49.78729843 107.34375 61.1015625 C123.92853347 81.08835284 124.06868571 106.39152865 124.6328125 131.0703125 C124.69650657 133.5956804 124.76092064 136.12103023 124.82601929 138.6463623 C124.97734208 144.58617371 125.12120979 150.5261356 125.26143587 156.46621656 C125.42126703 163.21682702 125.59146103 169.96716472 125.76217008 176.71750736 C126.0272301 187.21580727 126.2871108 197.71423266 126.53759766 208.21289062 C126.56250778 209.24047485 126.58741791 210.26805908 126.61308289 211.32678223 C126.63543503 212.27408203 126.65778717 213.22138184 126.68081665 214.1973877 C126.70034204 215.01656929 126.71986744 215.83575089 126.73998451 216.67975616 C126.782899 219.13334204 126.78825984 221.58515257 126.78125 224.0390625 C101.04952544 237.87525517 73.69526785 245.49232224 44.40625 245.4140625 C43.66957092 245.41385101 42.93289185 245.41363953 42.17388916 245.41342163 C22.96463556 245.35876894 4.91251158 242.44071463 -13.21875 236.0390625 C-15.4467219 235.28552071 -17.67580364 234.53524819 -19.90625 233.7890625 C-20.81761719 233.47453125 -21.72898437 233.16 -22.66796875 232.8359375 C-35.56669825 228.80631909 -47.92454216 231.69086854 -60.41357422 235.75292969 C-67.85553886 238.13791897 -75.38887165 239.41960558 -83.09375 240.6640625 C-84.37894531 240.880625 -85.66414063 241.0971875 -86.98828125 241.3203125 C-123.12812022 247.26412358 -160.39433946 244.55422189 -193.46459961 227.93139648 C-195.0819828 227.11940041 -195.0819828 227.11940041 -196.73204041 226.29100037 C-197.55265457 225.87786087 -198.37326874 225.46472137 -199.21875 225.0390625 C-198.89505904 210.11192707 -198.55645036 195.1851833 -198.20073223 180.25877666 C-198.03585242 173.32605648 -197.87560891 166.39329053 -197.72680664 159.46020508 C-197.58289237 152.75550131 -197.42536218 146.05123786 -197.25992775 139.34702492 C-197.1993099 136.80340505 -197.14307348 134.25967644 -197.09152794 131.71585655 C-196.53199983 104.39827729 -195.40524301 75.22780497 -174.40625 55.0390625 C-161.89715124 44.59211688 -147.33653547 41.17005796 -131.296875 42.3203125 C-112.48687865 44.58657712 -112.48687865 44.58657712 -106.21875 51.0390625 C-102.85186403 56.32382119 -102.78758755 60.78817359 -102.81811523 66.84887695 C-102.80764664 68.30617218 -102.80764664 68.30617218 -102.79696655 69.79290771 C-102.77701515 72.99614179 -102.77749005 76.1990531 -102.77734375 79.40234375 C-102.76556698 81.63666142 -102.75220202 83.87097124 -102.73731995 86.10527039 C-102.70114068 91.98557939 -102.68093795 97.86581882 -102.66577148 103.74621582 C-102.6409445 113.14704799 -102.60111234 122.54772623 -102.54387093 131.94841576 C-102.52760993 135.22372961 -102.52376998 138.49889706 -102.52085876 141.77424622 C-102.51107569 143.79652147 -102.50081131 145.81879448 -102.48999023 147.84106445 C-102.49254318 148.74370529 -102.49509613 149.64634613 -102.49772644 150.57633972 C-102.45356366 156.0968831 -102.29011329 161.85144079 -100.21875 167.0390625 C-96.86547361 169.27458009 -96.31131343 169.21189778 -92.53125 168.6640625 C-91.72300781 168.55320313 -90.91476563 168.44234375 -90.08203125 168.328125 C-89.15970703 168.18503906 -89.15970703 168.18503906 -88.21875 168.0390625 C-87.19665527 164.97277831 -87.08918294 162.88320377 -87.08071899 159.67189026 C-87.07526566 158.55761154 -87.06981232 157.44333282 -87.06419373 156.29528809 C-87.0631514 155.07192749 -87.06210907 153.84856689 -87.06103516 152.58813477 C-87.05323548 150.6106425 -87.04543177 148.63315025 -87.03747725 146.6556586 C-87.02976134 144.52790768 -87.02437953 142.40016106 -87.01951981 140.27240181 C-87.00882255 135.82877293 -86.98856966 131.38521974 -86.96640015 126.94163513 C-86.90454505 114.30463155 -86.85058679 101.66763128 -86.81738281 89.03051758 C-86.79896758 82.05244866 -86.76994038 75.07450565 -86.7293781 68.09652942 C-86.70841243 64.4084482 -86.69286589 60.72052498 -86.69057083 57.03238106 C-86.68800044 52.90625968 -86.66242098 48.78057388 -86.63525391 44.65454102 C-86.63976311 42.84682724 -86.63976311 42.84682724 -86.6443634 41.00259399 C-86.508629 27.05768671 -82.99446442 12.23404679 -73.16015625 1.7578125 C-51.79552972 -17.15654499 -22.16280289 -19.58754762 0 0 Z " fill="#FD4848" transform="translate(327.21875,14.9609375)"/>
<path d="M0 0 C1.160197 0.84664782 2.3177646 1.69691072 3.47265625 2.55078125 C4.33914795 3.1862085 4.33914795 3.1862085 5.22314453 3.83447266 C22.50245652 16.62915118 55.02112525 40.96534953 58.9765625 63.41015625 C59.33470094 81.07831941 42.2445933 95.08673413 30.80078125 107.12109375 C11.88464841 126.75164649 -11.68413706 142.73086189 -37.40234375 151.92578125 C-38.06717773 152.16441895 -38.73201172 152.40305664 -39.41699219 152.64892578 C-65.2432922 161.46812897 -93.41445644 157.22984034 -117.52734375 145.55078125 C-136.157185 136.22927143 -153.12535567 123.6008588 -167.52734375 108.55078125 C-169.93127439 106.12727463 -172.34638957 103.72339795 -174.81640625 101.3671875 C-197.36791413 79.60762221 -197.36791413 79.60762221 -197.96484375 67.05078125 C-196.74327234 45.39565166 -168.67508489 24.37253827 -153.52294922 10.74853516 C-150.01827244 7.77170114 -146.33332857 5.12555573 -142.52734375 2.55078125 C-141.90649902 2.11797852 -141.2856543 1.68517578 -140.64599609 1.23925781 C-126.23021276 -8.78151226 -110.66770037 -17.21892613 -93.52734375 -21.44921875 C-92.91109131 -21.62146973 -92.29483887 -21.7937207 -91.65991211 -21.97119141 C-59.78935254 -30.18278561 -25.95876535 -18.44560695 0 0 Z " fill="#D6FB80" transform="translate(359.52734375,339.44921875)"/>
<path d="M0 0 C13.03020776 10.30882273 23.27215014 23.40933122 26.94921875 39.859375 C27.15160156 40.57480469 27.35398437 41.29023438 27.5625 42.02734375 C32.53653864 61.68663931 28.11271669 81.75459868 17.94921875 98.859375 C15.83090247 102.100258 13.5476677 104.99327466 10.94921875 107.859375 C10.30726563 108.60445313 9.6653125 109.34953125 9.00390625 110.1171875 C-2.89967941 123.07496525 -20.20477608 129.82911982 -37.515625 131.1171875 C-56.94165033 131.72870981 -73.68691833 125.02224604 -88.05078125 111.859375 C-100.780859 99.85308094 -109.50348851 82.27930118 -110.2890625 64.6796875 C-110.75872633 45.01461136 -106.23338722 26.10301395 -92.55078125 11.296875 C-90.75395933 9.43969947 -88.91583183 7.6503721 -87.05078125 5.859375 C-86.35984375 5.17230469 -85.66890625 4.48523438 -84.95703125 3.77734375 C-79.92411202 -0.95648807 -74.22096033 -4.09728855 -68.05078125 -7.140625 C-67.41011719 -7.4603125 -66.76945312 -7.78 -66.109375 -8.109375 C-45.17186504 -17.82515689 -18.28033433 -12.82666224 0 0 Z " fill="#D6FB80" transform="translate(331.05078125,346.140625)"/>
<path d="M0 0 C13.03020776 10.30882273 23.27215014 23.40933122 26.94921875 39.859375 C27.15160156 40.57480469 27.35398437 41.29023438 27.5625 42.02734375 C32.53653864 61.68663931 28.11271669 81.75459868 17.94921875 98.859375 C15.83090247 102.100258 13.5476677 104.99327466 10.94921875 107.859375 C10.30726563 108.60445313 9.6653125 109.34953125 9.00390625 110.1171875 C-2.89967941 123.07496525 -20.20477608 129.82911982 -37.515625 131.1171875 C-56.94165033 131.72870981 -73.68691833 125.02224604 -88.05078125 111.859375 C-100.780859 99.85308094 -109.50348851 82.27930118 -110.2890625 64.6796875 C-110.75872633 45.01461136 -106.23338722 26.10301395 -92.55078125 11.296875 C-90.75395933 9.43969947 -88.91583183 7.6503721 -87.05078125 5.859375 C-86.35984375 5.17230469 -85.66890625 4.48523438 -84.95703125 3.77734375 C-79.92411202 -0.95648807 -74.22096033 -4.09728855 -68.05078125 -7.140625 C-67.41011719 -7.4603125 -66.76945312 -7.78 -66.109375 -8.109375 C-45.17186504 -17.82515689 -18.28033433 -12.82666224 0 0 Z M-64.05078125 7.859375 C-64.80746094 8.21 -65.56414062 8.560625 -66.34375 8.921875 C-79.82655418 15.60526158 -89.96357315 27.85526281 -95.05078125 41.859375 C-96.76465167 47.63995537 -97.37574589 52.7830447 -97.30078125 58.796875 C-97.29328857 59.59174316 -97.2857959 60.38661133 -97.27807617 61.20556641 C-97.17793235 66.65137619 -96.87015161 71.68554054 -95.05078125 76.859375 C-94.55578125 78.28636719 -94.55578125 78.28636719 -94.05078125 79.7421875 C-91.37967425 86.75384339 -88.02588231 92.26645093 -83.05078125 97.859375 C-82.55191406 98.46265625 -82.05304688 99.0659375 -81.5390625 99.6875 C-72.56726468 109.7214502 -59.14193115 115.44101393 -45.93359375 116.203125 C-34.92747024 116.6104084 -25.90011837 116.16823756 -16.05078125 110.859375 C-15.15230469 110.39015625 -14.25382812 109.9209375 -13.328125 109.4375 C-0.25427748 102.10194754 8.07123559 92.02523518 12.94921875 77.859375 C13.34109375 76.8075 13.73296875 75.755625 14.13671875 74.671875 C18.63958797 59.08502 15.58805212 44.27410634 8.015625 30.2890625 C0.61050502 17.4954752 -11.90937748 8.36873408 -26.12890625 4.484375 C-38.48885836 2.51466152 -52.77826953 1.77261912 -64.05078125 7.859375 Z " fill="#FC4B48" transform="translate(331.05078125,346.140625)"/>
<path d="M0 0 C8.63380979 6.38901924 15.816827 14.51294955 17.46875 25.421875 C18.33355096 38.49312891 17.11917246 49.01259505 8.3828125 59.421875 C-0.21323641 68.40386896 -10.32621917 72.39514467 -22.65625 72.796875 C-33.57420165 72.66024534 -41.59692802 68.31927544 -49.33984375 60.8125 C-57.63328826 51.76510599 -61.16531049 42.90641835 -60.80859375 30.62109375 C-59.93590171 20.55440673 -55.6565458 11.39074346 -48.35546875 4.3125 C-34.30242025 -7.04644076 -15.93819673 -9.93677697 0 0 Z " fill="#FC4A48" transform="translate(311.53125,372.578125)"/>
<path d="M0 0 C5.25396234 4.55277563 9.26267856 10.07837936 10.3125 17.0859375 C10.70594803 24.0942306 8.82838664 30.72986967 4.19921875 36.08203125 C-2.18596412 41.97127758 -8.42245877 44.69417718 -17.15625 44.40625 C-24.01742859 43.42608163 -29.27383523 40.4120718 -33.5 34.9375 C-34.37526858 33.65258537 -35.21150159 32.33991453 -36 31 C-36.37253906 30.39671875 -36.74507813 29.7934375 -37.12890625 29.171875 C-39.40414086 23.49909274 -38.94608195 16.04946414 -37.16015625 10.29296875 C-33.8705102 3.79121039 -28.79589957 0.19762607 -22.625 -3.375 C-14.61873755 -5.28125297 -7.07894792 -4.24024229 0 0 Z " fill="#D6FA7F" transform="translate(305,385)"/>
<path d="M0 0 C1.53701586 3.07403171 0.1828418 5.05458823 -0.875 8.25 C-7.21765232 27.49972803 -5.34968338 48.48533469 1.56274414 67.27368164 C2 69 2 69 1 71 C0.67 70.01 0.34 69.02 0 68 C-1.31891307 67.30524065 -2.65481009 66.64240667 -4 66 C-8.73643016 61.83975413 -12.97443011 57.06830247 -17.05859375 52.2734375 C-18.56722471 50.50679119 -20.10756573 48.7672029 -21.66015625 47.0390625 C-22.58653321 45.9848982 -23.51231608 44.93021153 -24.4375 43.875 C-25.30246094 42.90304687 -26.16742188 41.93109375 -27.05859375 40.9296875 C-29.35227833 37.46839287 -29.80641317 36.06348456 -29 32 C-27.37912925 29.63757355 -25.85923444 27.70542689 -23.9375 25.625 C-23.43089844 25.05410645 -22.92429688 24.48321289 -22.40234375 23.89501953 C-21.39497451 22.76140791 -20.38192041 21.63281833 -19.36279297 20.50976562 C-17.69926588 18.66683271 -16.1023425 16.77117059 -14.5 14.875 C-9.9302054 9.66833916 -4.93601278 4.85567984 0 0 Z " fill="#FC4C49" transform="translate(209,371)"/>
<path d="M0 0 C8.18861034 6.82384195 15.29201273 14.10969188 21.94140625 22.453125 C23.60540016 24.51180437 25.32427097 26.43959041 27.125 28.375 C29 31 29 31 28.91796875 33.2890625 C27.71697314 36.83583252 25.63650585 39.24964917 23.1875 42 C22.70192627 42.55816406 22.21635254 43.11632812 21.71606445 43.69140625 C20.15673104 45.47264767 18.58111449 47.2380768 17 49 C16.47277344 49.59039062 15.94554687 50.18078125 15.40234375 50.7890625 C13.83860593 52.53337938 12.26589337 54.26893949 10.6875 56 C10.20885498 56.52722656 9.73020996 57.05445313 9.23706055 57.59765625 C6.04288007 61.050705 2.66738482 64.05309107 -1 67 C-0.81824219 66.36835938 -0.63648438 65.73671875 -0.44921875 65.0859375 C0.39954059 62.06522477 1.2044773 59.03516993 2 56 C2.28617187 54.93910156 2.57234375 53.87820313 2.8671875 52.78515625 C7.28541067 34.7545979 4.79168421 17.69237246 0 0 Z " fill="#FC4B49" transform="translate(372,373)"/>
<path d="M0 0 C2.09765625 0.703125 2.09765625 0.703125 4.72265625 2.828125 C6.54046079 6.62898904 6.19599943 8.67586669 5.09765625 12.703125 C4.03515625 15.078125 4.03515625 15.078125 2.09765625 16.703125 C-4.14525374 18.44295237 -4.14525374 18.44295237 -7.7578125 16.921875 C-10.1019248 15.27375804 -11.66611106 13.54778435 -12.4453125 10.76171875 C-12.7181524 6.87559364 -12.07552431 4.97686202 -9.96484375 1.640625 C-6.23570369 -0.71862687 -4.25722637 -0.76758005 0 0 Z " fill="#FB4D49" transform="translate(293.90234375,396.296875)"/>
</svg>
