<?xml version="1.0" encoding="utf-8"?>
<svg width="32" height="32" viewBox="0 0 32 32" fill="none" xmlns="http://www.w3.org/2000/svg">
    <rect width="32" height="32" rx="16" fill="#3B99FC"/>
    <path d="M10.1213 11.5147C13.4633 8.17268 18.8787 8.17268 22.2207 11.5147L22.7065 12.0005C22.9018 12.1958 22.9018 12.5124 22.7065 12.7076L21.2929 14.1213C21.1953 14.2189 21.037 14.2189 20.9394 14.1213L20.2722 13.4541C17.9796 11.1615 14.3624 11.1615 12.0698 13.4541L11.3505 14.1734C11.2529 14.271 11.0946 14.271 10.997 14.1734L9.58335 12.7598C9.38809 12.5645 9.38809 12.2479 9.58335 12.0527L10.1213 11.5147ZM25.0919 14.3858L26.3533 15.6472C26.5486 15.8425 26.5486 16.1591 26.3533 16.3543L20.8492 21.8584C20.6539 22.0537 20.3373 22.0537 20.1421 21.8584L16.2812 17.9975C16.2324 17.9487 16.1533 17.9487 16.1045 17.9975L12.2436 21.8584C12.0483 22.0537 11.7317 22.0537 11.5365 21.8584L6.0324 16.3543C5.83714 16.1591 5.83714 15.8425 6.0324 15.6472L7.29378 14.3858C7.48904 14.1906 7.80566 14.1906 8.00092 14.3858L11.8619 18.2468C11.9107 18.2956 11.9898 18.2956 12.0386 18.2468L15.8995 14.3858C16.0947 14.1906 16.4114 14.1906 16.6066 14.3858L20.4675 18.2468C20.5163 18.2956 20.5954 18.2956 20.6442 18.2468L24.5051 14.3858C24.7004 14.1906 25.017 14.1906 25.0919 14.3858Z" fill="white"/>
</svg>
